<?xml version="1.0" encoding="iso-8859-1"?>
<!-- Generator: Adobe Illustrator 18.0.0, SVG Export Plug-In . SVG Version: 6.00 Build 0)  -->
<!DOCTYPE svg PUBLIC "-//W3C//DTD SVG 1.1//EN" "http://www.w3.org/Graphics/SVG/1.1/DTD/svg11.dtd">
<svg xmlns="http://www.w3.org/2000/svg" xmlns:xlink="http://www.w3.org/1999/xlink" version="1.1" id="Capa_1" x="0px" y="0px" viewBox="0 0 295.021 295.021" style="enable-background:new 0 0 295.021 295.021;" xml:space="preserve" width="512px" height="512px">
<g>
	<path d="M293.037,12.394c-1.888-2.051-4.762-2.882-7.449-2.166l-236,62.954c-2.591,0.691-4.615,2.712-5.311,5.302   c-0.695,2.589,0.044,5.352,1.939,7.248l7.132,7.134l-29.187,29.188c-2.929,2.93-2.929,7.678,0,10.607   c1.465,1.464,3.385,2.196,5.304,2.196c1.919,0,3.839-0.732,5.304-2.196l29.186-29.186l15.059,15.063l-39.878,39.878   c-2.929,2.93-2.929,7.678,0,10.607c1.465,1.464,3.385,2.196,5.304,2.196c1.919,0,3.839-0.732,5.304-2.196l39.876-39.876   l1.603,1.603v26.915l-69.163,69.163c-2.929,2.93-2.929,7.678,0,10.607c1.465,1.464,3.385,2.196,5.304,2.196   c1.919,0,3.839-0.732,5.304-2.196l58.556-58.556v30.155l-42.071,41.981c-2.932,2.926-2.937,7.674-0.011,10.606   c1.465,1.468,3.387,2.202,5.309,2.202c1.917,0,3.834-0.731,5.298-2.191l34.021-33.949c1.374,1.212,3.14,1.889,4.96,1.889   c1.127,0,2.272-0.256,3.349-0.794l41.419-20.715l-41.696,41.696c-2.929,2.93-2.929,7.678,0,10.607   c1.465,1.464,3.385,2.196,5.304,2.196c1.919,0,3.839-0.733,5.304-2.196l54.205-54.205l15.059,15.063l-30.86,30.86   c-2.929,2.93-2.929,7.678,0,10.607c1.465,1.464,3.385,2.196,5.304,2.196c1.919,0,3.839-0.733,5.304-2.196l30.858-30.858   l11.274,11.277c1.422,1.423,3.336,2.197,5.304,2.197c0.548,0,1.1-0.06,1.646-0.183c2.509-0.564,4.553-2.374,5.418-4.796   l78.668-220.334C295.52,17.373,294.926,14.445,293.037,12.394z M235.601,39.088L99.936,118.251L66.019,84.324L235.601,39.088z    M132.241,171.782l16.754,16.76l-33.506,16.757L132.241,171.782z M125.168,153.545c-0.697,0.628-1.271,1.382-1.69,2.221   l-17.257,34.526v-58.343l122.027-71.204L125.168,153.545z M205.775,224.123l-64.697-64.718L270.475,42.914L205.775,224.123z" fill="#FFFFFF"/>
	<path d="M27.35,183.636c0-1.971-0.8-3.91-2.2-5.301c-1.39-1.399-3.319-2.199-5.3-2.199c-1.97,0-3.91,0.8-5.3,2.199   c-1.4,1.391-2.2,3.33-2.2,5.301c0,1.979,0.8,3.909,2.2,5.3c1.39,1.399,3.33,2.2,5.3,2.2c1.981,0,3.91-0.801,5.3-2.2   C26.55,187.545,27.35,185.615,27.35,183.636z" fill="#FFFFFF"/>
	<path d="M90.33,269.005c-1.981,0-3.91,0.801-5.3,2.19c-1.4,1.4-2.2,3.34-2.2,5.31c0,1.971,0.8,3.9,2.2,5.301   c1.39,1.399,3.319,2.199,5.3,2.199c1.97,0,3.91-0.8,5.3-2.199c1.4-1.4,2.2-3.33,2.2-5.301c0-1.97-0.8-3.909-2.2-5.31   C94.24,269.806,92.31,269.005,90.33,269.005z" fill="#FFFFFF"/>
	<path d="M140.81,265.186c-1.97,0-3.899,0.8-5.3,2.2c-1.399,1.399-2.2,3.33-2.2,5.3c0,1.979,0.801,3.91,2.2,5.31   c1.39,1.391,3.33,2.19,5.3,2.19c1.981,0,3.91-0.8,5.311-2.19c1.39-1.399,2.189-3.33,2.189-5.31c0-1.97-0.8-3.9-2.189-5.3   C144.72,265.985,142.79,265.186,140.81,265.186z" fill="#FFFFFF"/>
	<path d="M189.939,255.105c-1.97,0-3.909,0.81-5.3,2.2c-1.4,1.399-2.2,3.33-2.2,5.3c0,1.98,0.801,3.91,2.2,5.31   c1.4,1.4,3.33,2.2,5.3,2.2c1.971,0,3.9-0.8,5.301-2.2c1.4-1.399,2.199-3.33,2.199-5.31c0-1.97-0.8-3.9-2.199-5.3   C193.85,255.915,191.91,255.105,189.939,255.105z" fill="#FFFFFF"/>
	<path d="M33.229,270.045c-1.97,0-3.909,0.801-5.3,2.19c-1.399,1.39-2.2,3.33-2.2,5.3c0,1.98,0.801,3.91,2.2,5.31   c1.391,1.39,3.33,2.199,5.3,2.199c1.98,0,3.91-0.81,5.311-2.199c1.39-1.4,2.189-3.33,2.189-5.31c0-1.97-0.8-3.91-2.189-5.3   C37.14,270.846,35.21,270.045,33.229,270.045z" fill="#FFFFFF"/>
	<path d="M15,149.895c0-1.97-0.8-3.9-2.2-5.3c-1.39-1.4-3.32-2.2-5.3-2.2c-1.981,0-3.91,0.8-5.3,2.2c-1.4,1.39-2.2,3.319-2.2,5.3   c0,1.98,0.8,3.91,2.2,5.3c1.39,1.4,3.33,2.2,5.3,2.2s3.899-0.8,5.3-2.2C14.2,153.806,15,151.865,15,149.895z" fill="#FFFFFF"/>
	<path d="M27.37,98.895c1.97,0,3.899-0.8,5.3-2.2c1.39-1.39,2.2-3.33,2.2-5.3c0-1.97-0.811-3.91-2.2-5.3c-1.4-1.4-3.33-2.2-5.3-2.2   c-1.98,0-3.91,0.8-5.311,2.2c-1.39,1.39-2.189,3.33-2.189,5.3c0,1.97,0.8,3.91,2.189,5.3C23.46,98.096,25.39,98.895,27.37,98.895z" fill="#FFFFFF"/>
</g>
<g>
</g>
<g>
</g>
<g>
</g>
<g>
</g>
<g>
</g>
<g>
</g>
<g>
</g>
<g>
</g>
<g>
</g>
<g>
</g>
<g>
</g>
<g>
</g>
<g>
</g>
<g>
</g>
<g>
</g>
</svg>
